<?xml version="1.0" encoding="utf-8"?>
<!-- Generator: Adobe Illustrator 19.0.0, SVG Export Plug-In . SVG Version: 6.00 Build 0)  -->
<svg version="1.1" id="Layer_1" xmlns="http://www.w3.org/2000/svg" xmlns:xlink="http://www.w3.org/1999/xlink" x="0px" y="0px"
	 viewBox="234 84 1032.5 619" style="enable-background:new 234 84 1032.5 619;" xml:space="preserve">
<style type="text/css">
	.st0{fill:none;}
	.st1{clip-path:url(#SVGID_8_);}
	.st2{fill:#FFFFFF;stroke:#FFFFFF;stroke-width:1.07;stroke-linecap:round;stroke-linejoin:round;stroke-miterlimit:10;}
	.st3{clip-path:url(#SVGID_12_);}
	.st4{fill:#FFFFFF;}
	.st5{fill:#357EBD;fill-opacity:0.8;}
	.st6{fill:#D43F3A;fill-opacity:0.8;}
	.st7{fill:none;stroke:#000000;stroke-width:1.07;stroke-linejoin:round;stroke-miterlimit:10;stroke-dasharray:1.42,4.27;}
	.st8{clip-path:url(#SVGID_14_);}
	.st9{fill:none;stroke:#000000;stroke-width:1.07;stroke-linejoin:round;stroke-miterlimit:10;}
	.st10{fill:#4D4D4D;}
	.st11{font-family:'ArialMT';}
	.st12{font-size:12px;}
	.st13{fill:none;stroke:#333333;stroke-width:1.07;stroke-linejoin:round;stroke-miterlimit:10;}
	.st14{font-size:16px;}
	.st15{font-size:18px;}
	.st16{clip-path:url(#SVGID_16_);}
	.st17{clip-path:url(#SVGID_20_);}
	.st18{clip-path:url(#SVGID_22_);}
	.st19{enable-background:new    ;}
	.st20{clip-path:url(#SVGID_24_);}
	.st21{clip-path:url(#SVGID_28_);}
	.st22{clip-path:url(#SVGID_30_);}
	.st23{clip-path:url(#SVGID_32_);}
	.st24{clip-path:url(#SVGID_36_);}
	.st25{clip-path:url(#SVGID_38_);}
	.st26{clip-path:url(#SVGID_40_);}
	.st27{clip-path:url(#SVGID_44_);}
	.st28{clip-path:url(#SVGID_46_);}
	.st29{clip-path:url(#SVGID_48_);}
	.st30{clip-path:url(#SVGID_52_);}
	.st31{clip-path:url(#SVGID_54_);}
	.st32{font-size:12.0012px;}
</style>
<g>
	<rect x="234" y="91" class="st0" width="1080" height="612"/>
	<g>
		<defs>
			<rect id="SVGID_1_" x="234" y="91" width="1080" height="612"/>
		</defs>
		<clipPath id="SVGID_2_">
			<use xlink:href="#SVGID_1_"  style="overflow:visible;"/>
		</clipPath>
	</g>
	<g>
		<defs>
			<rect id="SVGID_3_" x="234" y="91" width="1000.8" height="612"/>
		</defs>
		<clipPath id="SVGID_4_">
			<use xlink:href="#SVGID_3_"  style="overflow:visible;"/>
		</clipPath>
	</g>
	<g>
		<defs>
			<rect id="SVGID_5_" x="234" y="91" width="1080" height="612"/>
		</defs>
		<clipPath id="SVGID_6_">
			<use xlink:href="#SVGID_5_"  style="overflow:visible;"/>
		</clipPath>
	</g>
	<g>
		<defs>
			<rect id="SVGID_7_" x="234" y="91" width="342.7" height="306"/>
		</defs>
		<clipPath id="SVGID_8_">
			<use xlink:href="#SVGID_7_"  style="overflow:visible;"/>
		</clipPath>
		<g class="st1">
			<rect x="234" y="91" class="st2" width="342.7" height="306"/>
		</g>
	</g>
	<g>
		<defs>
			<rect id="SVGID_9_" x="234" y="91" width="1080" height="612"/>
		</defs>
		<clipPath id="SVGID_10_">
			<use xlink:href="#SVGID_9_"  style="overflow:visible;"/>
		</clipPath>
	</g>
	<g>
		<defs>
			<rect id="SVGID_11_" x="363.4" y="113.3" width="185" height="249.8"/>
		</defs>
		<clipPath id="SVGID_12_">
			<use xlink:href="#SVGID_11_"  style="overflow:visible;"/>
		</clipPath>
		<g class="st3">
			<rect x="363.4" y="113.3" class="st4" width="185" height="249.8"/>
			<circle class="st5" cx="438" cy="203.5" r="10.2"/>
			<circle class="st5" cx="423.4" cy="168.8" r="14.2"/>
			<circle class="st5" cx="415" cy="134.1" r="13.1"/>
			<circle class="st5" cx="392.8" cy="342.3" r="5.7"/>
			<circle class="st5" cx="379.6" cy="272.9" r="10.5"/>
			<circle class="st5" cx="376.7" cy="238.2" r="9.9"/>
			<circle class="st5" cx="372.7" cy="307.6" r="13.3"/>
			<circle class="st6" cx="501.8" cy="134.1" r="13.1"/>
			<circle class="st6" cx="493.5" cy="168.8" r="14.2"/>
			<circle class="st6" cx="412.5" cy="203.5" r="10.2"/>
			<circle class="st6" cx="383" cy="238.2" r="9.9"/>
			<circle class="st6" cx="377.1" cy="272.9" r="10.5"/>
			<circle class="st6" cx="375.7" cy="342.3" r="5.7"/>
			<circle class="st6" cx="375.7" cy="307.6" r="13.3"/>
			<line class="st7" x1="387.1" y1="363.1" x2="387.1" y2="113.3"/>
		</g>
	</g>
	<g>
		<defs>
			<rect id="SVGID_13_" x="234" y="91" width="1080" height="612"/>
		</defs>
		<clipPath id="SVGID_14_">
			<use xlink:href="#SVGID_13_"  style="overflow:visible;"/>
		</clipPath>
		<g class="st8">
			<line class="st9" x1="363.4" y1="363.1" x2="363.4" y2="113.3"/>
			<rect x="291.8" y="336.3" class="st0" width="66.7" height="14.2"/>
			<text transform="matrix(1 0 0 1 291.751 346.6001)" class="st10 st11 st12">Macrophage</text>
			<text transform="matrix(1 0 0 1 294.4287 311.91)" class="st10 st11 st12">Proliferation</text>
			<text transform="matrix(1 0 0 1 300.4287 270.73)" class="st10 st11 st12">Neutrophil,</text>
			<rect x="281.8" y="273.4" class="st0" width="76.7" height="14.2"/>
			<text transform="matrix(1 0 0 1 306.4556 283.6899)" class="st10 st11 st12">Monocyte </text>
			<text transform="matrix(1 0 0 1 261.7393 242.52)" class="st10 st11 st12">Interferon-Related</text>
			<rect x="310.4" y="197.5" class="st0" width="48" height="14.2"/>
			<text transform="matrix(1 0 0 1 310.4482 207.8301)" class="st10 st11 st12">Microglia</text>
			<rect x="251.7" y="156.4" class="st0" width="106.8" height="14.2"/>
			<text transform="matrix(1 0 0 1 251.7295 166.6499)" class="st10 st11 st12">Neurodegeneration-</text>
			<rect x="285.8" y="169.3" class="st0" width="72.7" height="14.2"/>
			<text transform="matrix(1 0 0 1 317.0996 179.6099)" class="st10 st11 st12">Related </text>
			<rect x="290.4" y="128.1" class="st0" width="68.1" height="14.2"/>
			<text transform="matrix(1 0 0 1 290.4209 138.4399)" class="st10 st11 st12">LPS-Related</text>
			<line class="st13" x1="360.6" y1="342.3" x2="363.4" y2="342.3"/>
			<line class="st13" x1="360.6" y1="307.6" x2="363.4" y2="307.6"/>
			<line class="st13" x1="360.6" y1="272.9" x2="363.4" y2="272.9"/>
			<line class="st13" x1="360.6" y1="238.2" x2="363.4" y2="238.2"/>
			<line class="st13" x1="360.6" y1="203.5" x2="363.4" y2="203.5"/>
			<line class="st13" x1="360.6" y1="168.8" x2="363.4" y2="168.8"/>
			<line class="st13" x1="360.6" y1="134.1" x2="363.4" y2="134.1"/>
			<line class="st9" x1="363.4" y1="363.1" x2="548.4" y2="363.1"/>
			<line class="st13" x1="509.4" y1="365.9" x2="509.4" y2="363.1"/>
			<line class="st13" x1="463.5" y1="365.9" x2="463.5" y2="363.1"/>
			<line class="st13" x1="417.7" y1="365.9" x2="417.7" y2="363.1"/>
			<line class="st13" x1="371.8" y1="365.9" x2="371.8" y2="363.1"/>
			<text transform="matrix(1 0 0 1 494.0543 376.65)" class="st10 st11 st12">1e-18</text>
			<text transform="matrix(1 0 0 1 448.1843 376.65)" class="st10 st11 st12">1e-12</text>
			<text transform="matrix(1 0 0 1 402.3243 376.65)" class="st10 st11 st12">1e-06</text>
			<rect x="354.9" y="366.4" class="st0" width="33.7" height="14.2"/>
			<text transform="matrix(1 0 0 1 354.9482 376.6499)" class="st10 st11 st12">1e+00</text>
			<text transform="matrix(1 0 0 1 439.4486 393.48)" class="st11 st14">FDR</text>
			<text transform="matrix(1 0 0 1 363.39 103.89)" class="st11 st15">Friedman et al. 2018</text>
		</g>
	</g>
	<g>
		<defs>
			<rect id="SVGID_15_" x="545.9" y="91" width="377" height="306"/>
		</defs>
		<clipPath id="SVGID_16_">
			<use xlink:href="#SVGID_15_"  style="overflow:visible;"/>
		</clipPath>
		<g class="st16">
			<rect x="545.9" y="91" class="st2" width="377" height="306"/>
		</g>
	</g>
	<g>
		<defs>
			<rect id="SVGID_17_" x="234" y="91" width="1080" height="612"/>
		</defs>
		<clipPath id="SVGID_18_">
			<use xlink:href="#SVGID_17_"  style="overflow:visible;"/>
		</clipPath>
	</g>
	<g>
		<defs>
			<rect id="SVGID_19_" x="689.3" y="113.3" width="205.3" height="249.8"/>
		</defs>
		<clipPath id="SVGID_20_">
			<use xlink:href="#SVGID_19_"  style="overflow:visible;"/>
		</clipPath>
		<g class="st17">
			<rect x="689.3" y="113.3" class="st4" width="205.3" height="249.8"/>
			<circle class="st5" cx="735.6" cy="131.6" r="13.1"/>
			<circle class="st5" cx="720" cy="192.5" r="10.6"/>
			<circle class="st5" cx="711.2" cy="162.1" r="5.7"/>
			<circle class="st5" cx="710.3" cy="223" r="7.7"/>
			<circle class="st5" cx="705.6" cy="283.9" r="12"/>
			<circle class="st5" cx="700.8" cy="253.4" r="12.2"/>
			<circle class="st5" cx="698.6" cy="314.4" r="14.2"/>
			<circle class="st5" cx="698.6" cy="344.8" r="5.7"/>
			<circle class="st6" cx="863" cy="131.6" r="13.1"/>
			<circle class="st6" cx="720.6" cy="162.1" r="5.7"/>
			<circle class="st6" cx="709.4" cy="192.5" r="10.6"/>
			<circle class="st6" cx="705.9" cy="223" r="7.7"/>
			<circle class="st6" cx="703.9" cy="253.4" r="12.2"/>
			<circle class="st6" cx="700.5" cy="283.9" r="12"/>
			<circle class="st6" cx="700" cy="314.4" r="14.2"/>
			<circle class="st6" cx="698.6" cy="344.8" r="5.7"/>
			<line class="st7" x1="706" y1="363.1" x2="706" y2="113.3"/>
		</g>
	</g>
	<g>
		<defs>
			<rect id="SVGID_21_" x="234" y="91" width="1080" height="612"/>
		</defs>
		<clipPath id="SVGID_22_">
			<use xlink:href="#SVGID_21_"  style="overflow:visible;"/>
		</clipPath>
		<g class="st18">
			<line class="st9" x1="689.3" y1="363.1" x2="689.3" y2="113.3"/>
			<rect x="636.3" y="332.4" class="st0" width="48" height="14.2"/>
			<text transform="matrix(1 0 0 1 636.3027 342.6602)" class="st10 st11 st12">Cluster 8</text>
			<rect x="615" y="345.3" class="st0" width="72.7" height="14.2"/>
			<text transform="matrix(1 0 0 1 614.9746 355.6201)" class="st19"><tspan x="0" y="0" class="st10 st11 st12">(metabolism</tspan><tspan x="68.7" y="0" class="st10 st11 st12">)</tspan></text>
			<rect x="636.3" y="301.9" class="st0" width="48" height="14.2"/>
			<text transform="matrix(1 0 0 1 636.3027 312.2002)" class="st10 st11 st12">Cluster 9</text>
			<rect x="613.6" y="314.9" class="st0" width="74" height="14.2"/>
			<text transform="matrix(1 0 0 1 613.627 325.1602)" class="st19"><tspan x="0" y="0" class="st10 st11 st12">(proliferation</tspan><tspan x="70" y="0" class="st10 st11 st12">)</tspan></text>
			<rect x="636.3" y="271.4" class="st0" width="48" height="14.2"/>
			<text transform="matrix(1 0 0 1 636.3027 281.73)" class="st10 st11 st12">Cluster 3</text>
			<rect x="566.9" y="284.4" class="st0" width="120.7" height="14.2"/>
			<text transform="matrix(1 0 0 1 570.29 294.6899)" class="st10 st11 st12">(cellular stress; aging)</text>
			<rect x="636.3" y="241" class="st0" width="48" height="14.2"/>
			<text transform="matrix(1 0 0 1 636.3027 251.27)" class="st10 st11 st12">Cluster 4</text>
			<rect x="572.9" y="253.9" class="st0" width="114.7" height="14.2"/>
			<text transform="matrix(1 0 0 1 576.2764 264.23)" class="st10 st11 st12">(interferon response)</text>
			<rect x="636.3" y="210.5" class="st0" width="48" height="14.2"/>
			<text transform="matrix(1 0 0 1 636.3027 220.8101)" class="st10 st11 st12">Cluster 2</text>
			<rect x="611.6" y="223.5" class="st0" width="76" height="14.2"/>
			<text transform="matrix(1 0 0 1 611.6289 233.77)" class="st19"><tspan x="0" y="0" class="st10 st11 st12">(homeostatic</tspan><tspan x="72" y="0" class="st10 st11 st12">)</tspan></text>
			<rect x="636.3" y="180.1" class="st0" width="48" height="14.2"/>
			<text transform="matrix(1 0 0 1 636.3027 190.3501)" class="st10 st11 st12">Cluster 6</text>
			<rect x="584.3" y="193" class="st0" width="103.4" height="14.2"/>
			<text transform="matrix(1 0 0 1 584.3008 203.3101)" class="st19"><tspan x="0" y="0" class="st10 st11 st12">(anti-inflammatory</tspan><tspan x="99.4" y="0" class="st10 st11 st12">)</tspan></text>
			<rect x="636.3" y="149.6" class="st0" width="48" height="14.2"/>
			<text transform="matrix(1 0 0 1 636.3027 159.8901)" class="st10 st11 st12">Cluster 7</text>
			<rect x="567.6" y="162.6" class="st0" width="120.1" height="14.2"/>
			<text transform="matrix(1 0 0 1 570.916 172.8501)" class="st10 st11 st12">(antigen presentation)</text>
			<rect x="636.3" y="119.1" class="st0" width="48" height="14.2"/>
			<text transform="matrix(1 0 0 1 636.3027 129.4199)" class="st10 st11 st12">Cluster 5</text>
			<rect x="584.3" y="132.1" class="st0" width="103.4" height="14.2"/>
			<text transform="matrix(1 0 0 1 584.3008 142.3799)" class="st19"><tspan x="0" y="0" class="st10 st11 st12">(anti-inflammatory</tspan><tspan x="99.4" y="0" class="st10 st11 st12">)</tspan></text>
			<line class="st13" x1="686.5" y1="344.8" x2="689.3" y2="344.8"/>
			<line class="st13" x1="686.5" y1="314.4" x2="689.3" y2="314.4"/>
			<line class="st13" x1="686.5" y1="283.9" x2="689.3" y2="283.9"/>
			<line class="st13" x1="686.5" y1="253.4" x2="689.3" y2="253.4"/>
			<line class="st13" x1="686.5" y1="223" x2="689.3" y2="223"/>
			<line class="st13" x1="686.5" y1="192.5" x2="689.3" y2="192.5"/>
			<line class="st13" x1="686.5" y1="162.1" x2="689.3" y2="162.1"/>
			<line class="st13" x1="686.5" y1="131.6" x2="689.3" y2="131.6"/>
			<line class="st9" x1="689.3" y1="363.1" x2="894.5" y2="363.1"/>
			<line class="st13" x1="851.6" y1="365.9" x2="851.6" y2="363.1"/>
			<line class="st13" x1="806.8" y1="365.9" x2="806.8" y2="363.1"/>
			<line class="st13" x1="762" y1="365.9" x2="762" y2="363.1"/>
			<line class="st13" x1="717.3" y1="365.9" x2="717.3" y2="363.1"/>
			<text transform="matrix(1 0 0 1 836.2743 376.65)" class="st10 st11 st12">1e-41</text>
			<text transform="matrix(1 0 0 1 791.4843 376.65)" class="st10 st11 st12">1e-29</text>
			<text transform="matrix(1 0 0 1 746.6943 376.65)" class="st10 st11 st12">1e-17</text>
			<text transform="matrix(1 0 0 1 701.9043 376.65)" class="st10 st11 st12">1e-05</text>
			<text transform="matrix(1 0 0 1 775.4586 393.48)" class="st11 st14">FDR</text>
			<text transform="matrix(1 0 0 1 689.26 103.89)" class="st11 st15">Olah et al. 2020</text>
		</g>
	</g>
	<g>
		<defs>
			<rect id="SVGID_23_" x="892" y="91" width="342.7" height="306"/>
		</defs>
		<clipPath id="SVGID_24_">
			<use xlink:href="#SVGID_23_"  style="overflow:visible;"/>
		</clipPath>
		<g class="st20">
			<rect x="892" y="91" class="st2" width="342.7" height="306"/>
		</g>
	</g>
	<g>
		<defs>
			<rect id="SVGID_25_" x="234" y="91" width="1080" height="612"/>
		</defs>
		<clipPath id="SVGID_26_">
			<use xlink:href="#SVGID_25_"  style="overflow:visible;"/>
		</clipPath>
	</g>
	<g>
		<defs>
			<rect id="SVGID_27_" x="994.8" y="132.8" width="211.7" height="230.3"/>
		</defs>
		<clipPath id="SVGID_28_">
			<use xlink:href="#SVGID_27_"  style="overflow:visible;"/>
		</clipPath>
		<g class="st21">
			<rect x="994.8" y="132.8" class="st4" width="211.7" height="230.3"/>
			<circle class="st5" cx="1070.3" cy="220.5" r="14.2"/>
			<circle class="st5" cx="1061.5" cy="165.7" r="13"/>
			<circle class="st5" cx="1009" cy="275.4" r="10.6"/>
			<circle class="st5" cx="1006" cy="330.2" r="5.7"/>
			<circle class="st6" cx="1181.8" cy="165.7" r="13"/>
			<circle class="st6" cx="1138.5" cy="220.5" r="14.2"/>
			<circle class="st6" cx="1064.2" cy="275.4" r="10.6"/>
			<circle class="st6" cx="1011.2" cy="330.2" r="5.7"/>
			<line class="st7" x1="1010.3" y1="363.1" x2="1010.3" y2="132.8"/>
		</g>
	</g>
	<g>
		<defs>
			<rect id="SVGID_29_" x="234" y="91" width="1080" height="612"/>
		</defs>
		<clipPath id="SVGID_30_">
			<use xlink:href="#SVGID_29_"  style="overflow:visible;"/>
		</clipPath>
		<g class="st22">
			<line class="st9" x1="994.8" y1="363.1" x2="994.8" y2="132.8"/>
			<rect x="909.8" y="317.7" class="st0" width="80.1" height="14.2"/>
			<text transform="matrix(1 0 0 1 909.7813 328.0298)" class="st19"><tspan x="0" y="0" class="st10 st11 st12">Early</tspan><tspan x="27.3" y="0" class="st10 st11 st12"> </tspan><tspan x="30.7" y="0" class="st10 st11 st12">response</tspan></text>
			<rect x="933.8" y="330.7" class="st0" width="56" height="14.2"/>
			<text transform="matrix(1 0 0 1 933.8105 340.9902)" class="st10 st11 st12">(Cluster 7)</text>
			<rect x="909.8" y="262.9" class="st0" width="80.1" height="14.2"/>
			<text transform="matrix(1 0 0 1 909.7813 273.1802)" class="st19"><tspan x="0" y="0" class="st10 st11 st12">Early</tspan><tspan x="27.3" y="0" class="st10 st11 st12"> </tspan><tspan x="30.7" y="0" class="st10 st11 st12">response</tspan></text>
			<rect x="933.8" y="275.8" class="st0" width="56" height="14.2"/>
			<text transform="matrix(1 0 0 1 933.8105 286.1401)" class="st10 st11 st12">(Cluster 3)</text>
			<rect x="924.4" y="208" class="st0" width="65.4" height="14.2"/>
			<text transform="matrix(1 0 0 1 924.4414 218.3398)" class="st10 st11 st12">Upregulated</text>
			<rect x="950.5" y="221" class="st0" width="39.3" height="14.2"/>
			<text transform="matrix(1 0 0 1 950.4805 231.2998)" class="st10 st11 st12">in DAM</text>
			<rect x="913.8" y="159.7" class="st0" width="76.1" height="14.2"/>
			<text transform="matrix(1 0 0 1 913.7656 169.9702)" class="st10 st11 st12">Late response</text>
			<line class="st13" x1="992" y1="330.2" x2="994.8" y2="330.2"/>
			<line class="st13" x1="992" y1="275.4" x2="994.8" y2="275.4"/>
			<line class="st13" x1="992" y1="220.5" x2="994.8" y2="220.5"/>
			<line class="st13" x1="992" y1="165.7" x2="994.8" y2="165.7"/>
			<line class="st9" x1="994.8" y1="363.1" x2="1206.4" y2="363.1"/>
			<line class="st13" x1="1164.3" y1="365.9" x2="1164.3" y2="363.1"/>
			<line class="st13" x1="1119.8" y1="365.9" x2="1119.8" y2="363.1"/>
			<line class="st13" x1="1075.4" y1="365.9" x2="1075.4" y2="363.1"/>
			<line class="st13" x1="1031" y1="365.9" x2="1031" y2="363.1"/>
			<text transform="matrix(1 0 0 1 1148.9043 376.65)" class="st10 st11 st12">1e-54</text>
			<text transform="matrix(1 0 0 1 1104.4944 376.65)" class="st10 st11 st12">1e-39</text>
			<text transform="matrix(1 0 0 1 1060.0842 376.65)" class="st10 st11 st12">1e-24</text>
			<text transform="matrix(1 0 0 1 1015.6743 376.65)" class="st10 st11 st12">1e-09</text>
			<text transform="matrix(1 0 0 1 1084.1487 393.48)" class="st11 st14">FDR</text>
			<text transform="matrix(1 0 0 1 994.75 103.89)" class="st11 st15">Mathys et al. 2017</text>
			<text transform="matrix(1 0 0 1 994.75 123.33)" class="st11 st15">Keren-Shaul et al. 2017</text>
		</g>
	</g>
	<g>
		<defs>
			<rect id="SVGID_31_" x="234" y="397" width="342.7" height="306"/>
		</defs>
		<clipPath id="SVGID_32_">
			<use xlink:href="#SVGID_31_"  style="overflow:visible;"/>
		</clipPath>
		<g class="st23">
			<rect x="234" y="397" class="st2" width="342.7" height="306"/>
		</g>
	</g>
	<g>
		<defs>
			<rect id="SVGID_33_" x="234" y="91" width="1080" height="612"/>
		</defs>
		<clipPath id="SVGID_34_">
			<use xlink:href="#SVGID_33_"  style="overflow:visible;"/>
		</clipPath>
	</g>
	<g>
		<defs>
			<rect id="SVGID_35_" x="363.4" y="419.3" width="185" height="249.8"/>
		</defs>
		<clipPath id="SVGID_36_">
			<use xlink:href="#SVGID_35_"  style="overflow:visible;"/>
		</clipPath>
		<g class="st24">
			<rect x="363.4" y="419.3" class="st4" width="185" height="249.8"/>
			<circle class="st5" cx="528.1" cy="474.8" r="10.1"/>
			<circle class="st5" cx="464" cy="613.6" r="5.7"/>
			<circle class="st5" cx="439.3" cy="440.1" r="14.2"/>
			<circle class="st5" cx="420.2" cy="509.5" r="13.2"/>
			<circle class="st5" cx="405.6" cy="648.3" r="10.6"/>
			<circle class="st5" cx="382.4" cy="544.2" r="10.9"/>
			<circle class="st5" cx="372.4" cy="578.9" r="13.2"/>
			<circle class="st6" cx="417.7" cy="440.1" r="14.2"/>
			<circle class="st6" cx="416.8" cy="474.8" r="10.1"/>
			<circle class="st6" cx="412.7" cy="509.5" r="13.2"/>
			<circle class="st6" cx="376.8" cy="544.2" r="10.9"/>
			<circle class="st6" cx="371.8" cy="648.3" r="10.6"/>
			<circle class="st6" cx="371.8" cy="613.6" r="5.7"/>
			<circle class="st6" cx="371.8" cy="578.9" r="13.2"/>
			<line class="st7" x1="387.1" y1="669.1" x2="387.1" y2="419.3"/>
		</g>
	</g>
	<g>
		<defs>
			<rect id="SVGID_37_" x="234" y="91" width="1080" height="612"/>
		</defs>
		<clipPath id="SVGID_38_">
			<use xlink:href="#SVGID_37_"  style="overflow:visible;"/>
		</clipPath>
		<g class="st25">
			<line class="st9" x1="363.4" y1="669.1" x2="363.4" y2="419.3"/>
			<text transform="matrix(1 0 0 1 261.7393 652.6)" class="st10 st11 st12">Interferon-Related</text>
			<rect x="291.8" y="607.6" class="st0" width="66.7" height="14.2"/>
			<text transform="matrix(1 0 0 1 291.751 617.9102)" class="st10 st11 st12">Macrophage</text>
			<text transform="matrix(1 0 0 1 294.4287 583.21)" class="st10 st11 st12">Proliferation</text>
			<text transform="matrix(1 0 0 1 300.4287 542.04)" class="st10 st11 st12">Neutrophil,</text>
			<rect x="281.8" y="544.7" class="st0" width="76.7" height="14.2"/>
			<text transform="matrix(1 0 0 1 306.4556 555)" class="st10 st11 st12">Monocyte </text>
			<rect x="290.4" y="503.5" class="st0" width="68.1" height="14.2"/>
			<text transform="matrix(1 0 0 1 290.4209 513.8301)" class="st10 st11 st12">LPS-Related</text>
			<rect x="310.4" y="468.8" class="st0" width="48" height="14.2"/>
			<text transform="matrix(1 0 0 1 310.4482 479.1299)" class="st10 st11 st12">Microglia</text>
			<rect x="251.7" y="427.7" class="st0" width="106.8" height="14.2"/>
			<text transform="matrix(1 0 0 1 251.7197 437.96)" class="st10 st11 st12">Neurodegeneration-</text>
			<rect x="285.8" y="440.6" class="st0" width="72.7" height="14.2"/>
			<text transform="matrix(1 0 0 1 317.0996 450.9199)" class="st10 st11 st12">Related </text>
			<line class="st13" x1="360.6" y1="648.3" x2="363.4" y2="648.3"/>
			<line class="st13" x1="360.6" y1="613.6" x2="363.4" y2="613.6"/>
			<line class="st13" x1="360.6" y1="578.9" x2="363.4" y2="578.9"/>
			<line class="st13" x1="360.6" y1="544.2" x2="363.4" y2="544.2"/>
			<line class="st13" x1="360.6" y1="509.5" x2="363.4" y2="509.5"/>
			<line class="st13" x1="360.6" y1="474.8" x2="363.4" y2="474.8"/>
			<line class="st13" x1="360.6" y1="440.1" x2="363.4" y2="440.1"/>
			<line class="st9" x1="363.4" y1="669.1" x2="548.4" y2="669.1"/>
			<line class="st13" x1="509.4" y1="671.9" x2="509.4" y2="669.1"/>
			<line class="st13" x1="463.5" y1="671.9" x2="463.5" y2="669.1"/>
			<line class="st13" x1="417.7" y1="671.9" x2="417.7" y2="669.1"/>
			<line class="st13" x1="371.8" y1="671.9" x2="371.8" y2="669.1"/>
			<text transform="matrix(1 0 0 1 494.0543 682.65)" class="st10 st11 st12">1e-18</text>
			<text transform="matrix(1 0 0 1 448.1843 682.65)" class="st10 st11 st12">1e-12</text>
			<text transform="matrix(1 0 0 1 402.3243 682.65)" class="st10 st11 st12">1e-06</text>
			<rect x="354.9" y="672.4" class="st0" width="33.7" height="14.2"/>
			<text transform="matrix(1 0 0 1 354.9482 682.6504)" class="st10 st11 st12">1e+00</text>
			<text transform="matrix(1 0 0 1 439.4486 699.48)" class="st11 st14">FDR</text>
		</g>
	</g>
	<g>
		<defs>
			<rect id="SVGID_39_" x="545.9" y="397" width="377" height="306"/>
		</defs>
		<clipPath id="SVGID_40_">
			<use xlink:href="#SVGID_39_"  style="overflow:visible;"/>
		</clipPath>
		<g class="st26">
			<rect x="545.9" y="397" class="st2" width="377" height="306"/>
		</g>
	</g>
	<g>
		<defs>
			<rect id="SVGID_41_" x="234" y="91" width="1080" height="612"/>
		</defs>
		<clipPath id="SVGID_42_">
			<use xlink:href="#SVGID_41_"  style="overflow:visible;"/>
		</clipPath>
	</g>
	<g>
		<defs>
			<rect id="SVGID_43_" x="689.3" y="419.3" width="205.3" height="249.8"/>
		</defs>
		<clipPath id="SVGID_44_">
			<use xlink:href="#SVGID_43_"  style="overflow:visible;"/>
		</clipPath>
		<g class="st27">
			<rect x="689.3" y="419.3" class="st4" width="205.3" height="249.8"/>
			<circle class="st5" cx="758.3" cy="437.6" r="12.9"/>
			<circle class="st5" cx="722.8" cy="589.9" r="11.6"/>
			<circle class="st5" cx="710.8" cy="498.5" r="10.7"/>
			<circle class="st5" cx="706.7" cy="559.5" r="12.5"/>
			<circle class="st5" cx="703.2" cy="468.1" r="8.5"/>
			<circle class="st5" cx="698.6" cy="650.8" r="14.2"/>
			<circle class="st5" cx="698.6" cy="529" r="5.7"/>
			<circle class="st5" cx="698.6" cy="620.4" r="7.8"/>
			<circle class="st6" cx="778.1" cy="437.6" r="12.9"/>
			<circle class="st6" cx="704.8" cy="468.1" r="8.5"/>
			<circle class="st6" cx="701.9" cy="498.5" r="10.7"/>
			<circle class="st6" cx="701.8" cy="529" r="5.7"/>
			<circle class="st6" cx="701.1" cy="589.9" r="11.6"/>
			<circle class="st6" cx="701.1" cy="559.5" r="12.5"/>
			<circle class="st6" cx="698.6" cy="650.8" r="14.2"/>
			<circle class="st6" cx="698.6" cy="620.4" r="7.8"/>
			<line class="st7" x1="706" y1="669.1" x2="706" y2="419.3"/>
		</g>
	</g>
	<g>
		<defs>
			<rect id="SVGID_45_" x="234" y="91" width="1080" height="612"/>
		</defs>
		<clipPath id="SVGID_46_">
			<use xlink:href="#SVGID_45_"  style="overflow:visible;"/>
		</clipPath>
		<g class="st28">
			<line class="st9" x1="689.3" y1="669.1" x2="689.3" y2="419.3"/>
			<rect x="636.3" y="638.4" class="st0" width="48" height="14.2"/>
			<text transform="matrix(1 0 0 1 636.3027 648.6602)" class="st10 st11 st12">Cluster 9</text>
			<rect x="613.6" y="651.3" class="st0" width="74" height="14.2"/>
			<text transform="matrix(1 0 0 1 613.627 661.6201)" class="st19"><tspan x="0" y="0" class="st10 st11 st12">(proliferation</tspan><tspan x="70" y="0" class="st10 st11 st12">)</tspan></text>
			<rect x="636.3" y="607.9" class="st0" width="48" height="14.2"/>
			<text transform="matrix(1 0 0 1 636.3027 618.2002)" class="st10 st11 st12">Cluster 8</text>
			<rect x="615" y="620.9" class="st0" width="72.7" height="14.2"/>
			<text transform="matrix(1 0 0 1 614.9746 631.1602)" class="st19"><tspan x="0" y="0" class="st10 st11 st12">(metabolism</tspan><tspan x="68.7" y="0" class="st10 st11 st12">)</tspan></text>
			<rect x="636.3" y="577.4" class="st0" width="48" height="14.2"/>
			<text transform="matrix(1 0 0 1 636.3027 587.7305)" class="st10 st11 st12">Cluster 3</text>
			<rect x="566.9" y="590.4" class="st0" width="120.7" height="14.2"/>
			<text transform="matrix(1 0 0 1 570.29 600.6904)" class="st10 st11 st12">(cellular stress; aging)</text>
			<rect x="636.3" y="547" class="st0" width="48" height="14.2"/>
			<text transform="matrix(1 0 0 1 636.3027 557.2695)" class="st10 st11 st12">Cluster 4</text>
			<rect x="572.9" y="559.9" class="st0" width="114.7" height="14.2"/>
			<text transform="matrix(1 0 0 1 576.2764 570.2305)" class="st10 st11 st12">(interferon response)</text>
			<rect x="636.3" y="516.5" class="st0" width="48" height="14.2"/>
			<text transform="matrix(1 0 0 1 636.3027 526.8096)" class="st10 st11 st12">Cluster 7</text>
			<rect x="567.6" y="529.5" class="st0" width="120.1" height="14.2"/>
			<text transform="matrix(1 0 0 1 570.916 539.7695)" class="st10 st11 st12">(antigen presentation)</text>
			<rect x="636.3" y="486.1" class="st0" width="48" height="14.2"/>
			<text transform="matrix(1 0 0 1 636.3027 496.3496)" class="st10 st11 st12">Cluster 6</text>
			<rect x="584.3" y="499" class="st0" width="103.4" height="14.2"/>
			<text transform="matrix(1 0 0 1 584.3008 509.3096)" class="st19"><tspan x="0" y="0" class="st10 st11 st12">(anti-inflammatory</tspan><tspan x="99.4" y="0" class="st10 st11 st12">)</tspan></text>
			<rect x="636.3" y="455.6" class="st0" width="48" height="14.2"/>
			<text transform="matrix(1 0 0 1 636.3027 465.8901)" class="st10 st11 st12">Cluster 2</text>
			<rect x="611.6" y="468.6" class="st0" width="76" height="14.2"/>
			<text transform="matrix(1 0 0 1 611.6289 478.8501)" class="st19"><tspan x="0" y="0" class="st10 st11 st12">(homeostatic</tspan><tspan x="72" y="0" class="st10 st11 st12">)</tspan></text>
			<rect x="636.3" y="425.1" class="st0" width="48" height="14.2"/>
			<text transform="matrix(1 0 0 1 636.3027 435.4199)" class="st10 st11 st12">Cluster 5</text>
			<rect x="584.3" y="438.1" class="st0" width="103.4" height="14.2"/>
			<text transform="matrix(1 0 0 1 584.3008 448.3799)" class="st19"><tspan x="0" y="0" class="st10 st11 st12">(anti-inflammatory</tspan><tspan x="99.4" y="0" class="st10 st11 st12">)</tspan></text>
			<line class="st13" x1="686.5" y1="650.8" x2="689.3" y2="650.8"/>
			<line class="st13" x1="686.5" y1="620.4" x2="689.3" y2="620.4"/>
			<line class="st13" x1="686.5" y1="589.9" x2="689.3" y2="589.9"/>
			<line class="st13" x1="686.5" y1="559.5" x2="689.3" y2="559.5"/>
			<line class="st13" x1="686.5" y1="529" x2="689.3" y2="529"/>
			<line class="st13" x1="686.5" y1="498.5" x2="689.3" y2="498.5"/>
			<line class="st13" x1="686.5" y1="468.1" x2="689.3" y2="468.1"/>
			<line class="st13" x1="686.5" y1="437.6" x2="689.3" y2="437.6"/>
			<line class="st9" x1="689.3" y1="669.1" x2="894.5" y2="669.1"/>
			<line class="st13" x1="851.6" y1="671.9" x2="851.6" y2="669.1"/>
			<line class="st13" x1="806.8" y1="671.9" x2="806.8" y2="669.1"/>
			<line class="st13" x1="762" y1="671.9" x2="762" y2="669.1"/>
			<line class="st13" x1="717.3" y1="671.9" x2="717.3" y2="669.1"/>
			<text transform="matrix(1 0 0 1 836.2743 682.65)" class="st10 st11 st12">1e-41</text>
			<text transform="matrix(1 0 0 1 791.4843 682.65)" class="st10 st11 st12">1e-29</text>
			<text transform="matrix(1 0 0 1 746.6943 682.65)" class="st10 st11 st12">1e-17</text>
			<text transform="matrix(1 0 0 1 701.9043 682.65)" class="st10 st11 st12">1e-05</text>
			<text transform="matrix(1 0 0 1 775.4586 699.48)" class="st11 st14">FDR</text>
		</g>
	</g>
	<g>
		<defs>
			<rect id="SVGID_47_" x="892" y="397" width="342.7" height="306"/>
		</defs>
		<clipPath id="SVGID_48_">
			<use xlink:href="#SVGID_47_"  style="overflow:visible;"/>
		</clipPath>
		<g class="st29">
			<rect x="892" y="397" class="st2" width="342.7" height="306"/>
		</g>
	</g>
	<g>
		<defs>
			<rect id="SVGID_49_" x="234" y="91" width="1080" height="612"/>
		</defs>
		<clipPath id="SVGID_50_">
			<use xlink:href="#SVGID_49_"  style="overflow:visible;"/>
		</clipPath>
	</g>
	<g>
		<defs>
			<rect id="SVGID_51_" x="994.8" y="419.3" width="211.7" height="249.8"/>
		</defs>
		<clipPath id="SVGID_52_">
			<use xlink:href="#SVGID_51_"  style="overflow:visible;"/>
		</clipPath>
		<g class="st30">
			<rect x="994.8" y="419.3" class="st4" width="211.7" height="249.8"/>
			<circle class="st5" cx="1097.8" cy="514.5" r="13"/>
			<circle class="st5" cx="1087.4" cy="455" r="14.2"/>
			<circle class="st5" cx="1016.5" cy="574" r="10.5"/>
			<circle class="st5" cx="1005.7" cy="633.4" r="5.7"/>
			<circle class="st6" cx="1091.2" cy="455" r="14.2"/>
			<circle class="st6" cx="1063.2" cy="514.5" r="13"/>
			<circle class="st6" cx="1036.3" cy="574" r="10.5"/>
			<circle class="st6" cx="1006.2" cy="633.4" r="5.7"/>
			<line class="st7" x1="1010.3" y1="669.1" x2="1010.3" y2="419.3"/>
		</g>
	</g>
	<g>
		<defs>
			<rect id="SVGID_53_" x="234" y="91" width="1080" height="612"/>
		</defs>
		<clipPath id="SVGID_54_">
			<use xlink:href="#SVGID_53_"  style="overflow:visible;"/>
		</clipPath>
		<g class="st31">
			<line class="st9" x1="994.8" y1="669.1" x2="994.8" y2="419.3"/>
			<rect x="909.8" y="621" class="st0" width="80.1" height="14.2"/>
			<text transform="matrix(1 0 0 1 909.7813 631.25)" class="st19"><tspan x="0" y="0" class="st10 st11 st12">Early</tspan><tspan x="27.3" y="0" class="st10 st11 st12"> </tspan><tspan x="30.7" y="0" class="st10 st11 st12">response</tspan></text>
			<rect x="933.8" y="633.9" class="st0" width="56" height="14.2"/>
			<text transform="matrix(1 0 0 1 933.8105 644.21)" class="st10 st11 st12">(Cluster 7)</text>
			<rect x="909.8" y="561.5" class="st0" width="80.1" height="14.2"/>
			<text transform="matrix(1 0 0 1 909.7813 571.7803)" class="st19"><tspan x="0" y="0" class="st10 st11 st12">Early</tspan><tspan x="27.3" y="0" class="st10 st11 st12"> </tspan><tspan x="30.7" y="0" class="st10 st11 st12">response</tspan></text>
			<rect x="933.8" y="574.4" class="st0" width="56" height="14.2"/>
			<text transform="matrix(1 0 0 1 933.8105 584.7402)" class="st10 st11 st12">(Cluster 3)</text>
			<rect x="913.8" y="508.5" class="st0" width="76.1" height="14.2"/>
			<text transform="matrix(1 0 0 1 913.7656 518.7803)" class="st10 st11 st12">Late response</text>
			<rect x="924.4" y="442.5" class="st0" width="65.4" height="14.2"/>
			<text transform="matrix(1 0 0 1 924.4414 452.8301)" class="st10 st11 st12">Upregulated</text>
			<rect x="950.5" y="455.5" class="st0" width="39.3" height="14.2"/>
			<text transform="matrix(1 0 0 1 950.4805 465.79)" class="st10 st11 st12">in DAM</text>
			<line class="st13" x1="992" y1="633.4" x2="994.8" y2="633.4"/>
			<line class="st13" x1="992" y1="574" x2="994.8" y2="574"/>
			<line class="st13" x1="992" y1="514.5" x2="994.8" y2="514.5"/>
			<line class="st13" x1="992" y1="455" x2="994.8" y2="455"/>
			<line class="st9" x1="994.8" y1="669.1" x2="1206.4" y2="669.1"/>
			<line class="st13" x1="1164.3" y1="671.9" x2="1164.3" y2="669.1"/>
			<line class="st13" x1="1119.8" y1="671.9" x2="1119.8" y2="669.1"/>
			<line class="st13" x1="1075.4" y1="671.9" x2="1075.4" y2="669.1"/>
			<line class="st13" x1="1031" y1="671.9" x2="1031" y2="669.1"/>
			<text transform="matrix(1 0 0 1 1148.9043 682.65)" class="st10 st11 st12">1e-54</text>
			<text transform="matrix(1 0 0 1 1104.4944 682.65)" class="st10 st11 st12">1e-39</text>
			<text transform="matrix(1 0 0 1 1060.0842 682.65)" class="st10 st11 st12">1e-24</text>
			<text transform="matrix(1 0 0 1 1015.6743 682.65)" class="st10 st11 st12">1e-09</text>
			<text transform="matrix(1 0 0 1 1084.1487 699.48)" class="st11 st14">FDR</text>
			<rect x="1180.8" y="597.3" class="st4" width="79.2" height="61.5"/>
			<circle class="st5" cx="1139.5" cy="644" r="7.4"/>
			<circle class="st6" cx="1139.5" cy="625.4" r="7.4"/>
			<rect x="1155" y="638" class="st0" width="50.7" height="14.2"/>
			<text transform="matrix(1 0 0 1 1154.9496 648.3221)" class="st11 st32">General</text>
			<rect x="1155" y="619" class="st0" width="65.4" height="14.2"/>
			<text transform="matrix(1 0 0 1 1154.9496 629.2935)" class="st11 st32">Patch-seq</text>
		</g>
	</g>
</g>
</svg>
